<svg width="65" height="64" viewBox="0 0 65 64" fill="none" xmlns="http://www.w3.org/2000/svg">
<rect x="0.5" width="64" height="64" rx="32" fill="#F4F5F7"/>
<path d="M43.5 26V22C43.5 21.7348 43.3946 21.4804 43.2071 21.2929C43.0196 21.1054 42.7652 21 42.5 21H22.5C22.2348 21 21.9804 21.1054 21.7929 21.2929C21.6054 21.4804 21.5 21.7348 21.5 22V26H43.5Z" fill="#2EC5CE"/>
<path d="M21.5 28V42C21.5 42.2652 21.6054 42.5196 21.7929 42.7071C21.9804 42.8946 22.2348 43 22.5 43H27.5V28H21.5Z" fill="#D6B1FF"/>
<path d="M29.5 43H42.5C42.7652 43 43.0196 42.8946 43.2071 42.7071C43.3946 42.5196 43.5 42.2652 43.5 42V28H29.5V43Z" fill="#288BFF"/>
</svg>
