<svg width="81" height="80" viewBox="0 0 81 80" fill="none" xmlns="http://www.w3.org/2000/svg">
<rect x="0.5" width="80" height="80" rx="40" fill="#F4F5F7"/>
<path d="M49.5 52H40.5C40.2348 52 39.9804 51.8946 39.7929 51.7071C39.6054 51.5196 39.5 51.2652 39.5 51V49C39.5 48.7348 39.6054 48.4804 39.7929 48.2929C39.9804 48.1054 40.2348 48 40.5 48H49.5C49.7652 48 50.0196 48.1054 50.2071 48.2929C50.3946 48.4804 50.5 48.7348 50.5 49V51C50.5 51.2652 50.3946 51.5196 50.2071 51.7071C50.0196 51.8946 49.7652 52 49.5 52Z" fill="#D6B1FF"/>
<path d="M49.5 28H31.5C31.2348 28 30.9804 28.1054 30.7929 28.2929C30.6054 28.4804 30.5 28.7348 30.5 29V31C30.5 31.2652 30.6054 31.5196 30.7929 31.7071C30.9804 31.8946 31.2348 32 31.5 32H49.5C49.7652 32 50.0196 31.8946 50.2071 31.7071C50.3946 31.5196 50.5 31.2652 50.5 31V29C50.5 28.7348 50.3946 28.4804 50.2071 28.2929C50.0196 28.1054 49.7652 28 49.5 28Z" fill="#2EC5CE"/>
<path d="M49.5 34H31.5C31.2348 34 30.9804 34.1054 30.7929 34.2929C30.6054 34.4804 30.5 34.7348 30.5 35V45C30.5 45.2652 30.6054 45.5196 30.7929 45.7071C30.9804 45.8946 31.2348 46 31.5 46H49.5C49.7652 46 50.0196 45.8946 50.2071 45.7071C50.3946 45.5196 50.5 45.2652 50.5 45V35C50.5 34.7348 50.3946 34.4804 50.2071 34.2929C50.0196 34.1054 49.7652 34 49.5 34Z" fill="#288BFF"/>
</svg>
