<svg width="81" height="80" viewBox="0 0 81 80" fill="none" xmlns="http://www.w3.org/2000/svg">
<rect x="0.5" width="80" height="80" rx="40" fill="#F4F5F7"/>
<path d="M33.5 29H30.5C30.2348 29 29.9804 29.1054 29.7929 29.2929C29.6054 29.4804 29.5 29.7348 29.5 30V50C29.5 50.2652 29.6054 50.5196 29.7929 50.7071C29.9804 50.8946 30.2348 51 30.5 51H33.5V29Z" fill="#D6B1FF"/>
<path d="M35.5 51H45.5V29H35.5V51ZM40.5 47C40.2348 47 39.9804 46.8946 39.7929 46.7071C39.6054 46.5196 39.5 46.2652 39.5 46C39.5 45.7348 39.6054 45.4804 39.7929 45.2929C39.9804 45.1054 40.2348 45 40.5 45C40.7652 45 41.0196 45.1054 41.2071 45.2929C41.3946 45.4804 41.5 45.7348 41.5 46C41.5 46.2652 41.3946 46.5196 41.2071 46.7071C41.0196 46.8946 40.7652 47 40.5 47ZM40.5 33C40.7652 33 41.0196 33.1054 41.2071 33.2929C41.3946 33.4804 41.5 33.7348 41.5 34C41.5 34.2652 41.3946 34.5196 41.2071 34.7071C41.0196 34.8946 40.7652 35 40.5 35C40.2348 35 39.9804 34.8946 39.7929 34.7071C39.6054 34.5196 39.5 34.2652 39.5 34C39.5 33.7348 39.6054 33.4804 39.7929 33.2929C39.9804 33.1054 40.2348 33 40.5 33ZM40.5 39C40.7652 39 41.0196 39.1054 41.2071 39.2929C41.3946 39.4804 41.5 39.7348 41.5 40C41.5 40.2652 41.3946 40.5196 41.2071 40.7071C41.0196 40.8946 40.7652 41 40.5 41C40.2348 41 39.9804 40.8946 39.7929 40.7071C39.6054 40.5196 39.5 40.2652 39.5 40C39.5 39.7348 39.6054 39.4804 39.7929 39.2929C39.9804 39.1054 40.2348 39 40.5 39Z" fill="#288BFF"/>
<path d="M50.5 29H47.5V51H50.5C50.7652 51 51.0196 50.8946 51.2071 50.7071C51.3946 50.5196 51.5 50.2652 51.5 50V30C51.5 29.7348 51.3946 29.4804 51.2071 29.2929C51.0196 29.1054 50.7652 29 50.5 29Z" fill="#2EC5CE"/>
</svg>
